<?xml version="1.0" encoding="UTF-8" standalone="no"?>
<!-- Created with Inkscape (http://www.inkscape.org/) -->

<svg
   xmlns:dc="http://purl.org/dc/elements/1.1/"
   xmlns:cc="http://creativecommons.org/ns#"
   xmlns:rdf="http://www.w3.org/1999/02/22-rdf-syntax-ns#"
   xmlns:svg="http://www.w3.org/2000/svg"
   xmlns="http://www.w3.org/2000/svg"
   xmlns:sodipodi="http://sodipodi.sourceforge.net/DTD/sodipodi-0.dtd"
   xmlns:inkscape="http://www.inkscape.org/namespaces/inkscape"
   version="1.1"
   id="svg2"
   xml:space="preserve"
   width="2350.6667"
   height="1113.832"
   viewBox="0 0 2350.6667 1113.832"
   sodipodi:docname="HahnSoftwareentwicklungwide.svg"
   inkscape:version="0.92.1 r15371"><metadata
     id="metadata8"><rdf:RDF><cc:Work
         rdf:about=""><dc:format>image/svg+xml</dc:format><dc:type
           rdf:resource="http://purl.org/dc/dcmitype/StillImage" /><dc:title></dc:title></cc:Work></rdf:RDF></metadata><defs
     id="defs6"><linearGradient
       x1="0"
       y1="0"
       x2="1"
       y2="0"
       gradientUnits="userSpaceOnUse"
       gradientTransform="matrix(-17.302828,-353.74344,-353.74344,17.302828,608.20605,616.26367)"
       spreadMethod="pad"
       id="linearGradient30"><stop
         style="stop-opacity:1;stop-color:#008ed3"
         offset="0"
         id="stop24" /><stop
         style="stop-opacity:1;stop-color:#008ed3"
         offset="0.56390722"
         id="stop26" /><stop
         style="stop-opacity:1;stop-color:#221d6b"
         offset="1"
         id="stop28" /></linearGradient><linearGradient
       x1="0"
       y1="0"
       x2="1"
       y2="0"
       gradientUnits="userSpaceOnUse"
       gradientTransform="matrix(-1.77e-5,405.65732,405.65732,1.77e-5,170.57129,193.56689)"
       spreadMethod="pad"
       id="linearGradient52"><stop
         style="stop-opacity:1;stop-color:#008ed3"
         offset="0"
         id="stop46" /><stop
         style="stop-opacity:1;stop-color:#008ed3"
         offset="0.56390722"
         id="stop48" /><stop
         style="stop-opacity:1;stop-color:#221d6b"
         offset="1"
         id="stop50" /></linearGradient><linearGradient
       x1="0"
       y1="0"
       x2="1"
       y2="0"
       gradientUnits="userSpaceOnUse"
       gradientTransform="matrix(-2.7e-5,-618.28986,-618.28986,2.7e-5,282.65332,770.47559)"
       spreadMethod="pad"
       id="linearGradient74"><stop
         style="stop-opacity:1;stop-color:#008ed3"
         offset="0"
         id="stop68" /><stop
         style="stop-opacity:1;stop-color:#008ed3"
         offset="0.56390722"
         id="stop70" /><stop
         style="stop-opacity:1;stop-color:#221d6b"
         offset="1"
         id="stop72" /></linearGradient><linearGradient
       x1="0"
       y1="0"
       x2="1"
       y2="0"
       gradientUnits="userSpaceOnUse"
       gradientTransform="matrix(-2.25e-5,-513.63184,-513.63184,2.25e-5,489.90723,449.4585)"
       spreadMethod="pad"
       id="linearGradient96"><stop
         style="stop-opacity:1;stop-color:#008ed3"
         offset="0"
         id="stop90" /><stop
         style="stop-opacity:1;stop-color:#008ed3"
         offset="0.56390722"
         id="stop92" /><stop
         style="stop-opacity:1;stop-color:#221d6b"
         offset="1"
         id="stop94" /></linearGradient><clipPath
       clipPathUnits="userSpaceOnUse"
       id="clipPath106"><path
         d="M 0,835.374 H 1763 V 0 H 0 Z"
         id="path104"
         inkscape:connector-curvature="0" /></clipPath></defs><sodipodi:namedview
     pagecolor="#ffffff"
     bordercolor="#666666"
     borderopacity="1"
     objecttolerance="10"
     gridtolerance="10"
     guidetolerance="10"
     inkscape:pageopacity="0"
     inkscape:pageshadow="2"
     inkscape:window-width="1920"
     inkscape:window-height="1017"
     id="namedview4"
     showgrid="false"
     inkscape:zoom="0.3488372"
     inkscape:cx="384.61919"
     inkscape:cy="-208.38102"
     inkscape:window-x="1912"
     inkscape:window-y="-8"
     inkscape:window-maximized="1"
     inkscape:current-layer="g10" /><g
     id="g10"
     inkscape:groupmode="layer"
     inkscape:label="HahnSoftwareentwicklungwide"
     transform="matrix(1.3333333,0,0,-1.3333333,0,1113.832)"><g
       id="g12"><g
         id="g14"><g
           id="g20"><g
             id="g22"><path
               d="M 579.033,574.415 V 253.201 l 65.217,14.783 c 17.209,3.904 29.433,19.209 29.433,36.86 v 0 246.769 c 0,24.726 -13.193,47.575 -34.607,59.939 v 0 l -108.785,62.805 c 50.631,-51.703 48.742,-61.013 48.742,-99.942"
               style="fill:url(#linearGradient30);stroke:none"
               id="path32"
               inkscape:connector-curvature="0" /></g></g></g></g><g
       id="g34"><g
         id="g36"><g
           id="g42"><g
             id="g44"><path
               d="M 128.313,583.384 C 111.098,579.48 98.878,564.18 98.878,546.527 v 0 -246.769 c 0,-24.729 13.19,-47.576 34.605,-59.939 v 0 l 108.782,-62.808 c -50.627,51.705 -48.743,61.018 -48.743,99.947 v 0 321.21 z"
               style="fill:url(#linearGradient52);stroke:none"
               id="path54"
               inkscape:connector-curvature="0" /></g></g></g></g><g
       id="g56"><g
         id="g58"><g
           id="g64"><g
             id="g66"><path
               d="M 351.419,737.18 133.483,611.354 C 112.068,598.987 98.878,576.137 98.878,551.412 v 0 -4.885 c 0,17.653 12.22,32.956 29.434,36.861 v 0 c 0,0 48.943,10.94 65.213,14.784 v 0 c 61.264,14.473 112.605,18.189 112.605,-2.431 v 0 -110.996 h 160.3 v 225.994 l -45.797,26.441 c -10.706,6.18 -22.656,9.271 -34.606,9.271 v 0 c -11.95,0 -23.901,-3.091 -34.608,-9.271"
               style="fill:url(#linearGradient74);stroke:none"
               id="path76"
               inkscape:connector-curvature="0" /></g></g></g></g><g
       id="g78"><g
         id="g80"><g
           id="g86"><g
             id="g88"><path
               d="M 306.13,366.621 V 140.633 l 45.793,-26.443 c 21.414,-12.357 47.799,-12.357 69.216,0 v 0 l 217.937,125.828 c 21.414,12.367 34.607,35.209 34.607,59.942 v 0 4.884 c 0,-17.651 -12.224,-32.956 -29.433,-36.86 v 0 c 0,0 -47.678,-10.553 -65.217,-14.783 v 0 C 531.03,241.61 466.43,235.012 466.43,255.632 v 0 110.989 z"
               style="fill:url(#linearGradient96);stroke:none"
               id="path98"
               inkscape:connector-curvature="0" /></g></g></g></g><g
       id="g100"><g
         id="g102"
         clip-path="url(#clipPath106)"><g
           id="g108"
           transform="translate(779.2129,317.2612)"><path
             d="M 0,0 H -33.133 V 318.534 H 0 V 176.42 h 93.242 v 142.114 h 33.132 V 0 H 93.242 V 147.018 H 0 Z"
             style="fill:#158ece;fill-opacity:1;fill-rule:nonzero;stroke:none"
             id="path110"
             inkscape:connector-curvature="0" /></g><g
           id="g112"
           transform="translate(1113.8408,466.728)"><path
             d="m 0,0 h -54.903 c -13.255,0 -22.41,-3.432 -27.454,-10.292 -5.052,-6.86 -7.574,-16.5 -7.574,-28.912 V -88.21 c 0,-12.419 2.522,-22.053 7.574,-28.913 5.044,-6.859 14.199,-10.291 27.454,-10.291 13.251,0 25.557,5.308 36.917,15.927 11.361,10.613 17.35,21.149 17.986,31.61 z M 33.132,-149.467 H 18.933 L 6.626,-118.102 C 0,-129.863 -8.684,-139.258 -19.406,-146.28 c -10.731,-7.022 -22.564,-10.536 -35.497,-10.536 -45.441,0 -68.16,22.863 -68.16,68.606 v 49.006 c 0,45.736 22.719,68.606 68.16,68.606 H 0 v 80.37 c 0,11.762 -3.631,20.905 -10.886,27.444 -7.262,6.529 -17.986,9.799 -32.185,9.799 -28.088,0 -42.126,-12.42 -42.126,-37.243 V 80.86 h -33.132 v 26.951 c 0,21.883 6.226,38.79 18.696,50.72 12.461,11.923 31.312,17.889 56.562,17.889 25.24,0 44.254,-5.966 57.034,-17.889 12.78,-11.93 19.169,-28.837 19.169,-50.72 z"
             style="fill:#158ece;fill-opacity:1;fill-rule:nonzero;stroke:none"
             id="path114"
             inkscape:connector-curvature="0" /></g><g
           id="g116"
           transform="translate(1270.0361,317.2612)"><path
             d="M 0,0 H -33.132 V 318.534 H 0 V 176.42 h 93.242 v 142.114 h 33.132 V 0 H 93.242 V 147.018 H 0 Z"
             style="fill:#158ece;fill-opacity:1;fill-rule:nonzero;stroke:none"
             id="path118"
             inkscape:connector-curvature="0" /></g><g
           id="g120"
           transform="translate(1524.2002,317.2612)"><path
             d="m 0,0 h -33.132 v 318.534 h 14.2 l 11.833,-31.851 c 15.147,26.132 36.126,39.204 62.953,39.204 46.382,0 69.574,-22.873 69.574,-68.61 V 0 H 92.296 v 257.277 c 0,12.413 -2.602,22.053 -7.808,28.916 -5.207,6.86 -14.754,10.288 -28.634,10.288 -13.891,0 -26.669,-5.559 -38.342,-16.662 C 5.836,268.71 0,257.929 0,247.479 Z"
             style="fill:#158ece;fill-opacity:1;fill-rule:nonzero;stroke:none"
             id="path122"
             inkscape:connector-curvature="0" /></g><g
           id="g124"
           transform="translate(777.0322,206.6328)"><path
             d="m 0,0 c 0,-9.604 -5.6,-14.407 -16.797,-14.407 -11.199,0 -16.799,4.803 -16.799,14.407 v 8.75 h 6.957 v -9.16 c 0,-2.471 0.83,-4.392 2.486,-5.763 1.656,-1.374 4.108,-2.061 7.356,-2.061 3.246,0 5.698,0.687 7.355,2.061 1.655,1.371 2.484,3.241 2.484,5.607 0,2.366 -0.248,4.252 -0.744,5.661 -0.496,1.406 -1.509,2.897 -3.032,4.475 l -17.494,17.701 c -2.055,2.125 -3.463,4.202 -4.225,6.228 -0.762,2.022 -1.143,4.58 -1.143,7.665 0,4.595 1.376,8.148 4.125,10.653 2.75,2.503 6.909,3.757 12.475,3.757 10.668,0 16.004,-4.806 16.004,-14.41 V 32.417 H -7.95 v 9.16 c 0,2.468 -0.78,4.389 -2.337,5.763 -1.558,1.37 -3.893,2.057 -7.007,2.057 -3.115,0 -5.452,-0.687 -7.007,-2.057 -1.558,-1.374 -2.338,-3.26 -2.338,-5.661 0,-2.402 0.233,-4.287 0.698,-5.658 0.462,-1.374 1.49,-2.815 3.081,-4.326 L -5.068,13.997 C -3.147,11.799 -1.821,9.691 -1.092,7.668 -0.364,5.642 0,3.088 0,0"
             style="fill:#158ece;fill-opacity:1;fill-rule:nonzero;stroke:none"
             id="path126"
             inkscape:connector-curvature="0" /></g><g
           id="g128"
           transform="translate(820.2695,206.6328)"><path
             d="m 0,0 v 41.164 c 0,5.489 -3.314,8.233 -9.939,8.233 -6.628,0 -9.941,-2.744 -9.941,-8.233 L -19.88,0 c 0,-5.489 3.313,-8.234 9.941,-8.234 C -3.314,-8.234 0,-5.489 0,0 M 6.958,41.164 V 0 c 0,-4.595 -1.41,-8.148 -4.226,-10.651 -2.816,-2.503 -7.023,-3.756 -12.623,-3.756 -5.599,0 -9.823,1.253 -12.672,3.756 -2.851,2.503 -4.275,6.056 -4.275,10.651 v 41.164 c 0,4.595 1.407,8.148 4.224,10.653 2.817,2.503 7.023,3.757 12.625,3.757 5.598,0 9.823,-1.254 12.673,-3.757 2.848,-2.505 4.274,-6.058 4.274,-10.653"
             style="fill:#158ece;fill-opacity:1;fill-rule:nonzero;stroke:none"
             id="path130"
             inkscape:connector-curvature="0" /></g><g
           id="g132"
           transform="translate(852.5723,193.7686)"><path
             d="M 0,0 H -6.958 V 66.892 H 20.378 V 60.719 H 0 V 37.048 H 16.399 V 30.875 L 0,30.875 Z"
             style="fill:#158ece;fill-opacity:1;fill-rule:nonzero;stroke:none"
             id="path134"
             inkscape:connector-curvature="0" /></g><g
           id="g136"
           transform="translate(885.3721,260.6606)"><path
             d="M 0,0 H 21.867 V -6.173 H 6.957 v -49.295 c 0,-1.921 0.481,-3.533 1.442,-4.838 0.96,-1.303 2.318,-1.956 4.076,-1.956 1.754,0 3.095,0.637 4.026,1.906 0.927,1.269 1.392,2.897 1.392,4.888 v 12.247 h 6.958 v -11.837 c 0,-4.322 -1.113,-7.633 -3.33,-9.929 -2.221,-2.3 -5.219,-3.448 -8.996,-3.448 -3.777,0 -6.808,1.148 -9.095,3.448 C 1.143,-62.691 0,-59.38 0,-55.058 Z"
             style="fill:#158ece;fill-opacity:1;fill-rule:nonzero;stroke:none"
             id="path138"
             inkscape:connector-curvature="0" /></g><g
           id="g140"
           transform="translate(948.4902,206.6328)"><path
             d="M 0,0 V 54.028 H 6.957 V 0 c 0,-5.489 3.064,-8.234 9.194,-8.234 6.128,0 9.194,2.745 9.194,8.234 v 54.028 h 6.959 V 0 c 0,-4.529 -1.392,-8.062 -4.176,-10.6 -2.783,-2.538 -6.907,-3.807 -12.373,-3.807 -5.468,0 -9.56,1.988 -12.276,5.97 -2.585,-3.982 -6.645,-5.97 -12.177,-5.97 -5.533,0 -9.692,1.269 -12.474,3.807 -2.783,2.538 -4.175,6.071 -4.175,10.6 v 54.028 h 6.957 V 0 c 0,-5.489 3.065,-8.234 9.196,-8.234 C -3.065,-8.234 0,-5.489 0,0"
             style="fill:#158ece;fill-opacity:1;fill-rule:nonzero;stroke:none"
             id="path142"
             inkscape:connector-curvature="0" /></g><g
           id="g144"
           transform="translate(1023.5322,225.1587)"><path
             d="m 0,0 h -11.529 c -2.784,0 -4.706,-0.722 -5.765,-2.163 -1.061,-1.441 -1.591,-3.466 -1.591,-6.071 v -10.292 c 0,-2.607 0.53,-4.63 1.591,-6.071 1.059,-1.441 2.981,-2.163 5.765,-2.163 2.782,0 5.367,1.117 7.753,3.346 2.384,2.229 3.644,4.44 3.776,6.638 z M 6.958,-31.39 H 3.977 l -2.585,6.586 c -1.392,-2.467 -3.215,-4.443 -5.466,-5.915 -2.254,-1.476 -4.739,-2.214 -7.455,-2.214 -9.543,0 -14.314,4.803 -14.314,14.407 v 10.292 c 0,9.605 4.771,14.407 14.314,14.407 H 0 v 16.878 c 0,2.468 -0.762,4.389 -2.285,5.763 -1.526,1.371 -3.778,2.058 -6.76,2.058 -5.898,0 -8.847,-2.608 -8.847,-7.821 v -6.072 h -6.957 v 5.659 c 0,4.595 1.307,8.148 3.927,10.654 2.616,2.502 6.575,3.756 11.877,3.756 5.301,0 9.294,-1.254 11.979,-3.756 2.683,-2.506 4.024,-6.059 4.024,-10.654 z"
             style="fill:#158ece;fill-opacity:1;fill-rule:nonzero;stroke:none"
             id="path146"
             inkscape:connector-curvature="0" /></g><g
           id="g148"
           transform="translate(1056.334,193.7686)"><path
             d="m 0,0 h -6.959 v 66.892 h 2.982 l 2.883,-7.614 c 2.121,6.103 5.5,9.16 10.139,9.16 7.885,0 11.829,-4.462 11.829,-13.38 V 48.37 h -6.66 v 7.098 c 0,4.529 -1.824,6.794 -5.467,6.794 C 6.56,62.262 4.554,60.958 2.732,58.35 0.911,55.742 0,51.97 0,47.031 Z"
             style="fill:#158ece;fill-opacity:1;fill-rule:nonzero;stroke:none"
             id="path150"
             inkscape:connector-curvature="0" /></g><g
           id="g152"
           transform="translate(1094.5996,247.7964)"><path
             d="M 0,0 V -16.465 H 18.887 V 0 c 0,5.489 -3.149,8.234 -9.445,8.234 C 3.148,8.234 0,5.489 0,0 m 18.887,-41.164 v 5.662 h 6.958 v -5.662 c 0,-4.595 -1.36,-8.148 -4.075,-10.65 -2.719,-2.503 -6.795,-3.756 -12.226,-3.756 -5.436,0 -9.544,1.253 -12.326,3.756 -2.783,2.502 -4.175,6.055 -4.175,10.65 V 0 c 0,4.595 1.357,8.148 4.076,10.654 2.716,2.503 6.792,3.756 12.226,3.756 5.431,0 9.542,-1.253 12.325,-3.756 C 24.453,8.148 25.845,4.595 25.845,0 V -22.638 H 0 v -18.526 c 0,-5.489 3.148,-8.233 9.442,-8.233 6.296,0 9.445,2.744 9.445,8.233"
             style="fill:#158ece;fill-opacity:1;fill-rule:nonzero;stroke:none"
             id="path154"
             inkscape:connector-curvature="0" /></g><g
           id="g156"
           transform="translate(1144.2988,247.7964)"><path
             d="M 0,0 V -16.465 H 18.885 V 0 c 0,5.489 -3.149,8.234 -9.443,8.234 C 3.147,8.234 0,5.489 0,0 m 18.885,-41.164 v 5.662 h 6.958 v -5.662 c 0,-4.595 -1.358,-8.148 -4.075,-10.65 -2.717,-2.503 -6.793,-3.756 -12.226,-3.756 -5.434,0 -9.542,1.253 -12.325,3.756 -2.782,2.502 -4.174,6.055 -4.174,10.65 V 0 c 0,4.595 1.355,8.148 4.074,10.654 2.717,2.503 6.792,3.756 12.226,3.756 5.432,0 9.542,-1.253 12.325,-3.756 C 24.451,8.148 25.843,4.595 25.843,0 V -22.638 H 0 v -18.526 c 0,-5.489 3.147,-8.233 9.442,-8.233 6.294,0 9.443,2.744 9.443,8.233"
             style="fill:#158ece;fill-opacity:1;fill-rule:nonzero;stroke:none"
             id="path158"
             inkscape:connector-curvature="0" /></g><g
           id="g160"
           transform="translate(1195.4893,193.7686)"><path
             d="m 0,0 h -6.959 v 66.892 h 2.981 l 2.485,-6.688 c 3.182,5.489 7.588,8.234 13.222,8.234 9.74,0 14.61,-4.806 14.61,-14.41 V 0 h -6.958 v 54.028 c 0,2.608 -0.547,4.634 -1.64,6.074 -1.093,1.441 -3.098,2.16 -6.012,2.16 -2.917,0 -5.601,-1.168 -8.052,-3.499 C 1.225,56.429 0,54.165 0,51.97 Z"
             style="fill:#158ece;fill-opacity:1;fill-rule:nonzero;stroke:none"
             id="path162"
             inkscape:connector-curvature="0" /></g><g
           id="g164"
           transform="translate(1239.2236,260.6606)"><path
             d="M 0,0 H 21.865 V -6.173 H 6.957 v -49.295 c 0,-1.921 0.48,-3.533 1.44,-4.838 0.96,-1.303 2.32,-1.956 4.077,-1.956 1.754,0 3.096,0.637 4.024,1.906 0.928,1.269 1.392,2.897 1.392,4.888 v 12.247 h 6.957 v -11.837 c 0,-4.322 -1.109,-7.633 -3.33,-9.929 -2.221,-2.3 -5.217,-3.448 -8.994,-3.448 -3.778,0 -6.81,1.148 -9.095,3.448 C 1.143,-62.691 0,-59.38 0,-55.058 Z"
             style="fill:#158ece;fill-opacity:1;fill-rule:nonzero;stroke:none"
             id="path166"
             inkscape:connector-curvature="0" /></g><g
           id="g168"
           transform="translate(1302.3398,206.6328)"><path
             d="M 0,0 V 54.028 H 6.957 V 0 c 0,-5.489 3.064,-8.234 9.195,-8.234 6.128,0 9.194,2.745 9.194,8.234 v 54.028 h 6.958 V 0 c 0,-4.529 -1.392,-8.062 -4.175,-10.6 -2.783,-2.538 -6.908,-3.807 -12.376,-3.807 -5.466,0 -9.559,1.988 -12.274,5.97 -2.583,-3.982 -6.645,-5.97 -12.177,-5.97 -5.533,0 -9.692,1.269 -12.474,3.807 -2.783,2.538 -4.175,6.071 -4.175,10.6 v 54.028 h 6.957 V 0 c 0,-5.489 3.067,-8.234 9.195,-8.234 C -3.067,-8.234 0,-5.489 0,0"
             style="fill:#158ece;fill-opacity:1;fill-rule:nonzero;stroke:none"
             id="path170"
             inkscape:connector-curvature="0" /></g><path
           d="m 1360.486,193.769 h -6.96 v 66.892 h 6.96 z"
           style="fill:#158ece;fill-opacity:1;fill-rule:nonzero;stroke:none"
           id="path172"
           inkscape:connector-curvature="0" /><g
           id="g174"
           transform="translate(1404.7158,206.6328)"><path
             d="M 0,0 V 5.661 H 6.957 V 0 c 0,-4.595 -1.357,-8.148 -4.076,-10.651 -2.715,-2.503 -6.791,-3.756 -12.225,-3.756 -5.434,0 -9.541,1.253 -12.324,3.756 -2.783,2.503 -4.175,6.056 -4.175,10.651 v 41.164 c 0,4.595 1.359,8.148 4.073,10.653 2.719,2.503 6.792,3.757 12.229,3.757 C -4.11,55.574 0,54.32 2.783,51.817 5.566,49.312 6.957,45.759 6.957,41.164 V 31.387 H 0 v 9.777 c 0,5.489 -3.148,8.233 -9.442,8.233 -6.297,0 -9.443,-2.744 -9.443,-8.233 V 0 c 0,-5.489 3.146,-8.234 9.443,-8.234 C -3.148,-8.234 0,-5.489 0,0"
             style="fill:#158ece;fill-opacity:1;fill-rule:nonzero;stroke:none"
             id="path176"
             inkscape:connector-curvature="0" /></g><g
           id="g178"
           transform="translate(1436.124,193.7686)"><path
             d="M 0,0 H -6.957 V 66.892 H 0 V 38.488 l 17.294,28.404 h 7.753 L 7.455,38.078 26.242,0 H 18.587 L 3.281,31.183 0,25.729 Z"
             style="fill:#158ece;fill-opacity:1;fill-rule:nonzero;stroke:none"
             id="path180"
             inkscape:connector-curvature="0" /></g><g
           id="g182"
           transform="translate(1474.29,193.7686)"><path
             d="M 0,0 V 66.892 H 6.958 V 6.176 h 18.19 l 0,-6.176 z"
             style="fill:#158ece;fill-opacity:1;fill-rule:nonzero;stroke:none"
             id="path184"
             inkscape:connector-curvature="0" /></g><g
           id="g186"
           transform="translate(1510.3711,206.6328)"><path
             d="M 0,0 V 54.028 H 6.957 V 0 c 0,-2.607 0.547,-4.63 1.641,-6.071 1.093,-1.441 3.096,-2.163 6.014,-2.163 2.915,0 5.597,1.168 8.051,3.502 2.451,2.331 3.677,4.595 3.677,6.79 v 51.97 h 6.958 v -66.892 h -2.984 l -2.583,6.586 c -1.459,-2.468 -3.33,-4.443 -5.615,-5.915 -2.285,-1.476 -4.789,-2.214 -7.504,-2.214 C 4.872,-14.407 0,-9.604 0,0"
             style="fill:#158ece;fill-opacity:1;fill-rule:nonzero;stroke:none"
             id="path188"
             inkscape:connector-curvature="0" /></g><g
           id="g190"
           transform="translate(1570.5029,193.7686)"><path
             d="m 0,0 h -6.957 v 66.892 h 2.982 l 2.486,-6.688 c 3.178,5.489 7.587,8.234 13.218,8.234 9.743,0 14.612,-4.806 14.612,-14.41 V 0 h -6.958 v 54.028 c 0,2.608 -0.547,4.634 -1.641,6.074 -1.093,1.441 -3.098,2.16 -6.013,2.16 -2.916,0 -5.6,-1.168 -8.052,-3.499 C 1.226,56.429 0,54.165 0,51.97 Z"
             style="fill:#158ece;fill-opacity:1;fill-rule:nonzero;stroke:none"
             id="path192"
             inkscape:connector-curvature="0" /></g><g
           id="g194"
           transform="translate(1628.9492,221.5552)"><path
             d="m 0,0 v 6.176 h 18.089 v -21.098 c 0,-4.596 -1.358,-8.148 -4.076,-10.651 -2.715,-2.503 -6.791,-3.756 -12.225,-3.756 -5.434,0 -9.541,1.253 -12.324,3.756 -2.783,2.503 -4.175,6.055 -4.175,10.651 v 41.163 c 0,4.595 1.358,8.148 4.073,10.654 2.719,2.503 6.792,3.756 12.229,3.756 5.43,0 9.541,-1.253 12.324,-3.756 2.783,-2.506 4.174,-6.059 4.174,-10.654 v -5.658 h -6.957 v 5.658 c 0,5.489 -3.149,8.234 -9.443,8.234 -6.296,0 -9.442,-2.745 -9.442,-8.234 v -41.163 c 0,-5.49 3.146,-8.234 9.442,-8.234 6.294,0 9.443,2.744 9.443,8.234 l 0,14.922 z"
             style="fill:#158ece;fill-opacity:1;fill-rule:nonzero;stroke:none"
             id="path196"
             inkscape:connector-curvature="0" /></g></g></g></g></svg>